<?xml version="1.0" encoding="UTF-8" standalone="no"?><!DOCTYPE svg PUBLIC "-//W3C//DTD SVG 1.1//EN" "http://www.w3.org/Graphics/SVG/1.1/DTD/svg11.dtd"><svg width="100%" height="100%" viewBox="0 0 100 100" version="1.1" xmlns="http://www.w3.org/2000/svg" xmlns:xlink="http://www.w3.org/1999/xlink" xml:space="preserve" xmlns:serif="http://www.serif.com/" style="fill-rule:evenodd;clip-rule:evenodd;stroke-linejoin:round;stroke-miterlimit:2;"><rect id="favicon" x="0" y="0" width="100" height="100" style="fill:none;"/><clipPath id="_clip1"><rect id="favicon1" serif:id="favicon" x="0" y="0" width="100" height="100"/></clipPath><g clip-path="url(#_clip1)"><g><path d="M11.48,45.468c4.834,0 8.913,-3.927 8.913,-9.365c-0,-5.74 -4.079,-9.668 -8.913,-9.668c-4.985,0 -9.063,3.928 -9.063,9.668c-0,5.438 4.078,9.365 9.063,9.365Zm0,54.532c4.834,0 8.913,-3.927 8.913,-9.366c-0,-5.74 -4.079,-9.667 -8.913,-9.667c-4.985,-0 -9.063,3.927 -9.063,9.667c-0,5.439 4.078,9.366 9.063,9.366Z" style="fill:#ffa9f1;fill-rule:nonzero;"/><path d="M65.861,100c17.674,0 31.722,-10.423 31.722,-27.492c0,-13.293 -9.214,-21.753 -20.846,-24.472l0,-0.604c10.423,-3.927 17.523,-11.329 17.523,-22.961c-0,-15.559 -12.085,-24.471 -28.852,-24.471c-11.329,0 -20.242,5.136 -27.644,12.085l6.647,7.855c5.74,-5.741 12.538,-9.819 20.544,-9.819c10.272,-0 16.616,5.891 16.616,15.257c-0,10.12 -6.798,17.975 -27.341,17.975l-0,9.517c22.96,0 30.815,7.704 30.815,19.184c0,10.725 -8.308,17.674 -19.939,17.674c-11.33,0 -18.882,-5.438 -24.623,-11.48l-6.344,8.157c6.495,7.1 16.314,13.595 31.722,13.595Z" style="fill:#ffa9f1;fill-rule:nonzero;"/></g></g></svg>