<?xml version="1.0" encoding="UTF-8" standalone="no"?><!DOCTYPE svg PUBLIC "-//W3C//DTD SVG 1.1//EN" "http://www.w3.org/Graphics/SVG/1.1/DTD/svg11.dtd"><svg width="100%" height="100%" viewBox="0 0 100 100" version="1.1" xmlns="http://www.w3.org/2000/svg" xmlns:xlink="http://www.w3.org/1999/xlink" xml:space="preserve" xmlns:serif="http://www.serif.com/" style="fill-rule:evenodd;clip-rule:evenodd;stroke-linejoin:round;stroke-miterlimit:2;"><rect id="favicon" x="0" y="0" width="100" height="100" style="fill:none;"/><g id="favicon1" serif:id="favicon"><path d="M13.487,48.309c-6.134,-0 -11.196,-4.791 -11.196,-11.482c0,-7.036 5.086,-11.769 11.196,-11.769c5.935,0 11.052,4.721 11.052,11.769c0,6.703 -5.093,11.482 -11.052,11.482Zm-0,51.691c-6.134,0 -11.196,-4.791 -11.196,-11.482c0,-7.036 5.086,-11.769 11.196,-11.769c5.935,0 11.052,4.721 11.052,11.769c0,6.704 -5.093,11.482 -11.052,11.482Zm68.187,-52.517c9.332,4.026 16.035,12.191 16.035,23.852c-0,17.675 -14.374,28.665 -32.674,28.665c-15.543,0 -25.439,-6.572 -31.991,-13.733l-1.484,-1.622l9.222,-11.858l2.085,2.196c5.008,5.27 11.569,10.071 21.452,10.071c9.421,0 16.296,-5.461 16.296,-14.148c0,-9.752 -7.103,-15.581 -26.606,-15.581l-2.604,0l-0,-14.23l2.604,0c17.216,0 23.313,-5.954 23.313,-14.435c0,-3.623 -1.163,-6.599 -3.384,-8.644c-2.298,-2.117 -5.651,-3.213 -9.762,-3.213c-6.89,-0 -12.693,3.605 -17.632,8.544l-2.002,2.002l-9.726,-11.495l1.803,-1.693c7.486,-7.028 16.528,-12.161 27.986,-12.161c17.522,0 29.954,9.542 29.954,25.801c-0,10.074 -4.995,17.184 -12.885,21.682Z" style="fill:#ffa9f1;"/></g></svg>