<?xml version="1.0" encoding="UTF-8" standalone="no"?><!DOCTYPE svg PUBLIC "-//W3C//DTD SVG 1.1//EN" "http://www.w3.org/Graphics/SVG/1.1/DTD/svg11.dtd"><svg width="100%" height="100%" viewBox="0 0 100 100" version="1.1" xmlns="http://www.w3.org/2000/svg" xmlns:xlink="http://www.w3.org/1999/xlink" xml:space="preserve" xmlns:serif="http://www.serif.com/" style="fill-rule:evenodd;clip-rule:evenodd;stroke-linejoin:round;stroke-miterlimit:2;"><rect id="blender" x="0" y="0" width="100" height="100" style="fill:none;"/><clipPath id="_clip1"><rect x="0" y="0" width="100" height="100"/></clipPath><g clip-path="url(#_clip1)"><path d="M51.822,54.741c0.187,-3.333 1.817,-6.279 4.286,-8.36c2.416,-2.045 5.66,-3.297 9.223,-3.297c3.544,-0 6.789,1.25 9.205,3.297c2.469,2.081 4.092,5.027 4.286,8.36c0.187,3.421 -1.191,6.613 -3.598,8.976c-2.469,2.398 -5.961,3.915 -9.893,3.915c-3.933,-0 -7.442,-1.506 -9.894,-3.915c-2.416,-2.363 -3.791,-5.538 -3.597,-8.959l-0.018,-0.017Z" style="fill:#fff;fill-rule:nonzero;"/><path d="M30.66,61.795c0.023,1.305 0.439,3.844 1.063,5.819c1.312,4.197 3.545,8.077 6.631,11.481c3.175,3.509 7.09,6.331 11.604,8.341c4.744,2.099 9.894,3.175 15.237,3.175c5.343,-0.008 10.493,-1.101 15.237,-3.228c4.514,-2.028 8.429,-4.849 11.604,-8.376c3.103,-3.439 5.326,-7.319 6.631,-11.516c0.661,-2.116 1.079,-4.268 1.246,-6.419c0.164,-2.117 0.096,-4.25 -0.206,-6.384c-0.589,-4.145 -2.028,-8.042 -4.232,-11.569c-2.011,-3.263 -4.621,-6.102 -7.725,-8.5l0.007,-0.005l-31.214,-23.984c-0.028,-0.021 -0.051,-0.044 -0.081,-0.064c-2.046,-1.573 -5.502,-1.568 -7.742,0.009c-2.275,1.594 -2.539,4.232 -0.511,5.89l-0.009,0.009l13.032,10.599l-39.679,0.042l-0.053,0c-3.28,0.004 -6.437,2.152 -7.054,4.885c-0.642,2.769 1.587,5.079 5.009,5.079l-0.006,0.012l20.104,-0.039l-35.975,27.511c-0.046,0.034 -0.096,0.069 -0.138,0.103c-3.386,2.592 -4.479,6.913 -2.345,9.628c2.169,2.769 6.772,2.787 10.193,0.016l19.575,-16.048c-0,0 -0.286,2.169 -0.263,3.457l0.06,0.076Zm50.437,7.248c-4.039,4.109 -9.7,6.454 -15.802,6.454c-6.119,0.011 -11.78,-2.292 -15.818,-6.401c-1.975,-2.011 -3.421,-4.303 -4.321,-6.755c-0.876,-2.416 -1.217,-4.973 -0.991,-7.548c0.213,-2.521 0.965,-4.937 2.169,-7.107c1.178,-2.133 2.804,-4.073 4.797,-5.713c3.933,-3.192 8.923,-4.938 14.143,-4.938c5.238,-0.007 10.229,1.709 14.161,4.902c1.993,1.63 3.616,3.563 4.797,5.697c1.205,2.169 1.958,4.567 2.169,7.107c0.222,2.574 -0.118,5.131 -0.994,7.547c-0.896,2.469 -2.346,4.762 -4.321,6.772l0.011,-0.017Z" style="fill:#fff;fill-rule:nonzero;"/></g></svg>