<?xml version="1.0" encoding="UTF-8" standalone="no"?><!DOCTYPE svg PUBLIC "-//W3C//DTD SVG 1.1//EN" "http://www.w3.org/Graphics/SVG/1.1/DTD/svg11.dtd"><svg width="100%" height="100%" viewBox="0 0 100 100" version="1.1" xmlns="http://www.w3.org/2000/svg" xmlns:xlink="http://www.w3.org/1999/xlink" xml:space="preserve" xmlns:serif="http://www.serif.com/" style="fill-rule:evenodd;clip-rule:evenodd;stroke-linejoin:round;stroke-miterlimit:2;"><rect id="css" x="-0" y="0" width="100" height="100" style="fill:none;"/><clipPath id="_clip1"><rect x="-0" y="0" width="100" height="100"/></clipPath><g clip-path="url(#_clip1)"><path d="M99.999,9.766l0,80.468c0,5.39 -4.375,9.766 -9.765,9.766l-80.468,0c-5.39,0 -9.766,-4.376 -9.766,-9.766l0,-80.468c0,-5.39 4.376,-9.765 9.766,-9.765l80.468,-0c5.39,-0 9.765,4.375 9.765,9.765Zm-5,0c0,-2.63 -2.135,-4.765 -4.765,-4.765l-80.468,-0c-2.631,-0 -4.766,2.135 -4.766,4.765l0,80.468c0,2.631 2.135,4.766 4.766,4.766l80.468,0c2.63,0 4.765,-2.135 4.765,-4.766l0,-80.468Z" style="fill:#fff;"/><path d="M9.999,56.157l0,-43.657c0,-0.663 0.264,-1.299 0.732,-1.768c0.469,-0.469 1.105,-0.732 1.768,-0.732l75.001,-0c0.663,-0 1.299,0.263 1.768,0.732c0.469,0.469 0.732,1.105 0.732,1.768l0,75c0,0.663 -0.263,1.299 -0.732,1.768c-0.469,0.469 -1.105,0.732 -1.768,0.732l-75.001,0c-0.663,0 -1.299,-0.263 -1.768,-0.732c-0.468,-0.469 -0.732,-1.105 -0.732,-1.768l0,-16.331c1.925,2.372 4.828,3.552 7.967,3.552c2.8,0 5.3,-1.066 7.133,-3.2l-3,-3.6c-0.933,1 -2.266,1.867 -3.933,1.867c-2.8,-0 -4.667,-2.267 -4.667,-6.333c0,-3.934 2.2,-6.267 4.734,-6.267c1.466,-0 2.533,0.667 3.6,1.6l3,-3.667c-1.534,-1.533 -3.867,-2.866 -6.734,-2.866c-3.14,-0 -6.127,1.364 -8.1,3.902Zm23.967,18.564c5.4,0 8.467,-3.266 8.467,-6.933c-0,-3 -1.534,-4.867 -4.234,-5.933l-2.633,-1.034c-1.967,-0.766 -3.2,-1.133 -3.2,-2.166c-0,-0.967 0.867,-1.467 2.267,-1.467c1.6,-0 2.866,0.533 4.333,1.567l2.867,-3.6c-2,-1.967 -4.734,-2.9 -7.2,-2.9c-4.734,-0 -8.067,3.033 -8.067,6.733c-0,3.133 2.033,5.1 4.367,6.033l2.7,1.134c1.833,0.733 2.933,1.066 2.933,2.1c-0,0.966 -0.733,1.533 -2.467,1.533c-1.6,-0 -3.533,-0.867 -5.066,-2.1l-3.267,3.933c2.333,2.1 5.467,3.1 8.2,3.1Zm18.133,0c5.4,0 8.467,-3.266 8.467,-6.933c-0,-3 -1.533,-4.867 -4.233,-5.933l-2.634,-1.034c-1.966,-0.766 -3.2,-1.133 -3.2,-2.166c0,-0.967 0.867,-1.467 2.267,-1.467c1.6,-0 2.867,0.533 4.333,1.567l2.867,-3.6c-2,-1.967 -4.733,-2.9 -7.2,-2.9c-4.733,-0 -8.067,3.033 -8.067,6.733c0,3.133 2.034,5.1 4.367,6.033l2.7,1.134c1.833,0.733 2.933,1.066 2.933,2.1c0,0.966 -0.733,1.533 -2.466,1.533c-1.6,-0 -3.534,-0.867 -5.067,-2.1l-3.267,3.933c2.334,2.1 5.467,3.1 8.2,3.1Z" style="fill:#fff;"/></g></svg>