<?xml version="1.0" encoding="UTF-8" standalone="no"?><!DOCTYPE svg PUBLIC "-//W3C//DTD SVG 1.1//EN" "http://www.w3.org/Graphics/SVG/1.1/DTD/svg11.dtd"><svg width="100%" height="100%" viewBox="0 0 100 100" version="1.1" xmlns="http://www.w3.org/2000/svg" xmlns:xlink="http://www.w3.org/1999/xlink" xml:space="preserve" xmlns:serif="http://www.serif.com/" style="fill-rule:evenodd;clip-rule:evenodd;stroke-linejoin:round;stroke-miterlimit:2;"><rect id="photo" x="0" y="0" width="100" height="100" style="fill:none;"/><path d="M100,9.766l0,80.468c0,5.39 -4.376,9.766 -9.766,9.766l-80.468,0c-5.39,0 -9.766,-4.376 -9.766,-9.766l0,-80.468c0,-5.39 4.376,-9.765 9.766,-9.765l80.468,-0c5.39,-0 9.766,4.375 9.766,9.765Zm-5,0c0,-2.63 -2.135,-4.765 -4.766,-4.765l-80.468,-0c-2.631,-0 -4.766,2.135 -4.766,4.765l0,80.468c0,2.631 2.135,4.766 4.766,4.766l80.468,0c2.631,0 4.766,-2.135 4.766,-4.766l0,-80.468Z" style="fill:#fff;"/><path d="M90,86.367c-0.015,2.008 -1.65,3.633 -3.661,3.633l-36.951,0l-15.794,-27.357l56.406,0l0,23.724Zm-80,-0.028l-0,-16.063l34.8,-60.276l13.6,0l-29.4,50.923l16.788,29.077l-32.127,0c-2.021,0 -3.661,-1.64 -3.661,-3.661Zm44.592,-26.815l-13.75,-0c-1.535,-0 -2.954,-0.806 -3.721,-2.135c-0.767,-1.328 -0.767,-2.969 0,-4.297l6.879,-11.914l10.592,18.346Zm31.747,-49.524c2.011,0 3.646,1.625 3.661,3.633l0,45.891l-31.806,-0l-12.394,-21.464l16.2,-28.06l24.339,0Z" style="fill:#fff;"/></svg>