<?xml version="1.0" encoding="UTF-8" standalone="no"?><!DOCTYPE svg PUBLIC "-//W3C//DTD SVG 1.1//EN" "http://www.w3.org/Graphics/SVG/1.1/DTD/svg11.dtd"><svg width="100%" height="100%" viewBox="0 0 100 100" version="1.1" xmlns="http://www.w3.org/2000/svg" xmlns:xlink="http://www.w3.org/1999/xlink" xml:space="preserve" xmlns:serif="http://www.serif.com/" style="fill-rule:evenodd;clip-rule:evenodd;stroke-linejoin:round;stroke-miterlimit:2;"><rect id="figma" x="0" y="0" width="100" height="100" style="fill:none;"/><clipPath id="_clip1"><rect x="0" y="0" width="100" height="100"/></clipPath><g clip-path="url(#_clip1)"><path d="M24.926,34.166c-1.348,-0.786 -2.601,-1.748 -3.723,-2.87c-3.438,-3.438 -5.369,-8.101 -5.369,-12.963c-0,-4.862 1.931,-9.525 5.369,-12.963c3.438,-3.439 8.101,-5.37 12.963,-5.37l31.668,0c4.862,-0 9.525,1.931 12.963,5.37c3.438,3.438 5.369,8.101 5.369,12.963c0,4.862 -1.931,9.525 -5.369,12.963c-1.122,1.122 -2.375,2.084 -3.723,2.87c1.348,0.787 2.601,1.749 3.723,2.871c3.438,3.438 5.369,8.101 5.369,12.963c0,4.862 -1.931,9.525 -5.369,12.963c-1.122,1.122 -2.375,2.084 -3.723,2.871c1.348,0.786 2.601,1.748 3.723,2.87c3.438,3.438 5.369,8.101 5.369,12.963c0,4.862 -1.931,9.525 -5.369,12.963c-3.438,3.439 -8.101,5.37 -12.963,5.37c-4.862,-0 -9.525,-1.931 -12.963,-5.37c-1.123,-1.122 -2.085,-2.375 -2.871,-3.722c-0.786,1.347 -1.748,2.6 -2.871,3.722c-3.438,3.439 -8.101,5.37 -12.963,5.37c-4.862,-0 -9.525,-1.931 -12.963,-5.37c-3.438,-3.438 -5.369,-8.101 -5.369,-12.963c-0,-4.862 1.931,-9.525 5.369,-12.963c1.122,-1.122 2.375,-2.084 3.723,-2.87c-1.348,-0.787 -2.601,-1.749 -3.723,-2.871c-3.438,-3.438 -5.369,-8.101 -5.369,-12.963c-0,-4.862 1.931,-9.525 5.369,-12.963c1.122,-1.122 2.375,-2.084 3.723,-2.871Zm22.575,-29.168l-13.335,-0c-3.536,-0 -6.928,1.405 -9.429,3.906c-2.5,2.5 -3.905,5.892 -3.905,9.429c-0,3.536 1.405,6.928 3.905,9.429c2.501,2.5 5.893,3.905 9.429,3.905l13.335,0l0,-26.669Zm18.333,26.669c3.536,0 6.928,-1.405 9.429,-3.905c2.5,-2.501 3.905,-5.893 3.905,-9.429c0,-3.537 -1.405,-6.929 -3.905,-9.429c-2.501,-2.501 -5.893,-3.906 -9.429,-3.906c-0,-0 -13.335,-0 -13.335,-0l-0,26.669l13.335,0Zm-0,31.668c3.536,-0 6.928,-1.405 9.429,-3.906c2.5,-2.501 3.905,-5.892 3.905,-9.429c0,-3.537 -1.405,-6.928 -3.905,-9.429c-2.501,-2.501 -5.893,-3.906 -9.429,-3.906c-7.365,0 -13.335,5.97 -13.335,13.335c-0,3.537 1.405,6.928 3.906,9.429c2.5,2.501 5.892,3.906 9.429,3.906Zm-13.335,18.332c-0,3.537 1.405,6.929 3.906,9.429c2.5,2.501 5.892,3.906 9.429,3.906c3.536,0 6.928,-1.405 9.429,-3.906c2.5,-2.5 3.905,-5.892 3.905,-9.429c0,-3.536 -1.405,-6.928 -3.905,-9.429c-2.501,-2.5 -5.893,-3.905 -9.429,-3.905c-7.365,-0 -13.335,5.97 -13.335,13.334Zm-18.333,-13.334c-3.536,-0 -6.928,1.405 -9.429,3.905c-2.5,2.501 -3.905,5.893 -3.905,9.429c-0,3.537 1.405,6.929 3.905,9.429c2.501,2.501 5.893,3.906 9.429,3.906c3.537,0 6.929,-1.405 9.429,-3.906c2.501,-2.5 3.906,-5.892 3.906,-9.429l0,-13.334l-13.335,-0Zm0,-31.668c-3.536,0 -6.928,1.405 -9.429,3.906c-2.5,2.501 -3.905,5.892 -3.905,9.429c-0,3.537 1.405,6.928 3.905,9.429c2.501,2.501 5.893,3.906 9.429,3.906l13.335,-0l0,-26.67l-13.335,0Zm18.333,32.422c1.198,-1.27 2.575,-2.368 4.091,-3.255c-1.346,-0.786 -2.598,-1.747 -3.719,-2.869c-0.126,-0.126 -0.25,-0.253 -0.372,-0.382l-0,6.506Z" style="fill:#fff;"/></g></svg>