<?xml version="1.0" encoding="UTF-8" standalone="no"?><!DOCTYPE svg PUBLIC "-//W3C//DTD SVG 1.1//EN" "http://www.w3.org/Graphics/SVG/1.1/DTD/svg11.dtd"><svg width="100%" height="100%" viewBox="0 0 100 100" version="1.1" xmlns="http://www.w3.org/2000/svg" xmlns:xlink="http://www.w3.org/1999/xlink" xml:space="preserve" xmlns:serif="http://www.serif.com/" style="fill-rule:evenodd;clip-rule:evenodd;stroke-linejoin:round;stroke-miterlimit:2;"><rect id="html" x="-0" y="0" width="100" height="100" style="fill:none;"/><clipPath id="_clip1"><rect x="-0" y="0" width="100" height="100"/></clipPath><g clip-path="url(#_clip1)"><path d="M100,9.766l-0,80.468c-0,5.39 -4.376,9.766 -9.766,9.766l-80.468,0c-5.39,0 -9.765,-4.376 -9.765,-9.766l-0,-80.468c-0,-5.39 4.375,-9.765 9.765,-9.765l80.468,-0c5.39,-0 9.766,4.375 9.766,9.765Zm-5,0c-0,-2.63 -2.135,-4.765 -4.766,-4.765l-80.468,-0c-2.63,-0 -4.765,2.135 -4.765,4.765l-0,80.468c-0,2.631 2.135,4.766 4.765,4.766l80.468,0c2.631,0 4.766,-2.135 4.766,-4.766l-0,-80.468Z" style="fill:#fff;"/><path d="M9.999,51.121l0,-38.621c0,-0.663 0.264,-1.299 0.732,-1.768c0.469,-0.469 1.105,-0.732 1.768,-0.732l75.001,-0c0.663,-0 1.299,0.263 1.768,0.732c0.469,0.469 0.732,1.105 0.732,1.768l0,75c0,0.663 -0.263,1.299 -0.732,1.768c-0.469,0.469 -1.105,0.732 -1.768,0.732l-75.001,0c-0.663,0 -1.299,-0.263 -1.768,-0.732c-0.468,-0.469 -0.732,-1.105 -0.732,-1.768l0,-13.179l5.25,0l0,-10.933c0.867,-0.8 1.467,-1.267 2.534,-1.267c1.133,0 1.666,0.534 1.666,2.667l0,9.533l5.734,0l-0,-10.266c-0,-4.134 -1.534,-6.8 -5.2,-6.8c-2.267,-0 -3.867,1.133 -5,2.133l0.266,-2.867l0,-5.4l-5.25,0Zm25.784,23.6c1.833,0 3.066,-0.333 3.933,-0.6l-0.867,-4.133c-0.4,0.133 -0.933,0.267 -1.466,0.267c-1.067,-0 -2,-0.6 -2,-2.434l-0,-5.7l3.8,0l-0,-4.466l-3.8,-0l-0,-4.334l-4.734,0l-0.666,4.334l-2.534,0.2l0,4.266l2.2,0l0,5.8c0,4.067 1.8,6.8 6.134,6.8Zm40.533,0c1.267,0 2.2,-0.2 2.8,-0.466l-0.667,-4.2c-0.266,0.066 -0.4,0.066 -0.6,0.066c-0.4,0 -0.933,-0.333 -0.933,-1.466l-0,-17.534l-5.733,0l-0,17.334c-0,3.733 1.266,6.266 5.133,6.266Zm-34.067,-0.4l5.734,0l-0,-10.933c0.866,-0.867 1.666,-1.267 2.333,-1.267c1.133,0 1.667,0.534 1.667,2.667l-0,9.533l5.733,0l-0,-10.933c0.867,-0.867 1.667,-1.267 2.333,-1.267c1.134,0 1.667,0.534 1.667,2.667l-0,9.533l5.733,0l0,-10.266c0,-4.134 -1.6,-6.8 -5.266,-6.8c-2.267,-0 -3.767,1.266 -5.134,2.666c-0.9,-1.733 -2.333,-2.666 -4.6,-2.666c-2.266,-0 -3.666,1.133 -5,2.433l-0.133,-0l-0.4,-2.033l-4.667,-0l0,16.666Z" style="fill:#fff;"/></g></svg>