<?xml version="1.0" encoding="UTF-8" standalone="no"?><!DOCTYPE svg PUBLIC "-//W3C//DTD SVG 1.1//EN" "http://www.w3.org/Graphics/SVG/1.1/DTD/svg11.dtd"><svg width="100%" height="100%" viewBox="0 0 100 100" version="1.1" xmlns="http://www.w3.org/2000/svg" xmlns:xlink="http://www.w3.org/1999/xlink" xml:space="preserve" xmlns:serif="http://www.serif.com/" style="fill-rule:evenodd;clip-rule:evenodd;stroke-linejoin:round;stroke-miterlimit:2;"><rect id="js" x="-0" y="0" width="100" height="100" style="fill:none;"/><clipPath id="_clip1"><rect x="-0" y="0" width="100" height="100"/></clipPath><g clip-path="url(#_clip1)"><path d="M99.999,9.766l-0,80.468c-0,5.39 -4.376,9.766 -9.766,9.766l-80.468,0c-5.39,0 -9.766,-4.376 -9.766,-9.766l0,-80.468c0,-5.39 4.376,-9.765 9.766,-9.765l80.468,-0c5.39,-0 9.766,4.375 9.766,9.765Zm-5,0c-0,-2.63 -2.135,-4.765 -4.766,-4.765l-80.468,-0c-2.63,-0 -4.766,2.135 -4.766,4.765l0,80.468c0,2.631 2.136,4.766 4.766,4.766l80.468,0c2.631,0 4.766,-2.135 4.766,-4.766l-0,-80.468Z" style="fill:#fff;"/><path d="M9.999,64.738l0,-52.238c0,-0.663 0.264,-1.299 0.732,-1.768c0.469,-0.469 1.105,-0.732 1.768,-0.732l75.001,-0c0.663,-0 1.299,0.263 1.768,0.732c0.469,0.469 0.732,1.105 0.732,1.768l0,75c0,0.663 -0.263,1.299 -0.732,1.768c-0.469,0.469 -1.105,0.732 -1.768,0.732l-75.001,0c-0.663,0 -1.299,-0.263 -1.768,-0.732c-0.468,-0.469 -0.732,-1.105 -0.732,-1.768l0,-20.416c1.508,1.727 3.514,2.566 6.317,2.566c5,0 7.333,-3.6 7.333,-7.933l0,-14.133l-5.733,-0l-0,13.666c-0,2.734 -0.867,3.467 -2.4,3.467c-0.933,-0 -2,-0.667 -2.733,-2.067l-2.784,2.088Zm25.184,4.912c5.4,0 8.466,-3.266 8.466,-6.933c0,-3 -1.533,-4.867 -4.233,-5.933l-2.633,-1.034c-1.967,-0.766 -3.2,-1.133 -3.2,-2.166c-0,-0.967 0.866,-1.467 2.266,-1.467c1.6,-0 2.867,0.533 4.334,1.567l2.866,-3.6c-2,-1.967 -4.733,-2.9 -7.2,-2.9c-4.733,-0 -8.066,3.033 -8.066,6.733c-0,3.133 2.033,5.1 4.366,6.033l2.7,1.134c1.834,0.733 2.934,1.066 2.934,2.1c-0,0.966 -0.734,1.533 -2.467,1.533c-1.6,-0 -3.533,-0.867 -5.067,-2.1l-3.266,3.933c2.333,2.1 5.466,3.1 8.2,3.1Z" style="fill:#fff;"/></g></svg>