<?xml version="1.0" encoding="UTF-8" standalone="no"?><!DOCTYPE svg PUBLIC "-//W3C//DTD SVG 1.1//EN" "http://www.w3.org/Graphics/SVG/1.1/DTD/svg11.dtd"><svg width="100%" height="100%" viewBox="0 0 100 100" version="1.1" xmlns="http://www.w3.org/2000/svg" xmlns:xlink="http://www.w3.org/1999/xlink" xml:space="preserve" xmlns:serif="http://www.serif.com/" style="fill-rule:evenodd;clip-rule:evenodd;stroke-linejoin:round;stroke-miterlimit:2;"><rect id="designer" x="0" y="0" width="100" height="100" style="fill:none;"/><clipPath id="_clip1"><rect x="0" y="0" width="100" height="100"/></clipPath><g clip-path="url(#_clip1)"><path d="M100,9.81l0,80.836c0,5.415 -4.396,9.81 -9.81,9.81l-80.836,0c-5.415,0 -9.81,-4.395 -9.81,-9.81l-0,-80.836c-0,-5.414 4.395,-9.81 9.81,-9.81l80.836,0c5.414,0 9.81,4.396 9.81,9.81Zm-5,0c0,-2.655 -2.155,-4.81 -4.81,-4.81l-80.836,0c-2.655,0 -4.81,2.155 -4.81,4.81l-0,80.836c-0,2.655 2.155,4.81 4.81,4.81l80.836,0c2.655,0 4.81,-2.155 4.81,-4.81l0,-80.836Z" style="fill:#fff;"/><path d="M89.773,62.868l0,23.699c0,1.996 -1.601,3.622 -3.588,3.661l-24.203,-0l-15.803,-27.36l43.594,-0Zm-31.392,27.36l-42.818,-0l21.421,-37.045l21.397,37.045Zm-46.256,-0.241c-1.295,-0.497 -2.237,-1.707 -2.342,-3.148l-0.01,-16.336l17.407,-30.138l13.605,0l-28.66,49.622Zm41.103,-49.678c1.186,0.005 2.32,0.701 2.932,1.733c0.007,0.011 0.019,0.032 0.019,0.032l3.597,6.229l0.031,0.052c0.588,1.028 0.61,2.324 0.023,3.37c-1.206,2.11 -2.43,4.209 -3.646,6.313c-0.597,1.023 -1.726,1.691 -2.927,1.705c-2.291,0.01 -6.885,0.005 -6.892,0.005c-1.185,-0.005 -2.338,-0.637 -2.951,-1.669c-0.014,-0.022 -0.039,-0.068 -0.039,-0.068c-0,-0 -3.599,-6.23 -3.607,-6.244c-0.588,-1.029 -0.587,-2.357 0,-3.404c0.009,-0.015 0.027,-0.046 0.027,-0.046c-0,-0 2.408,-4.178 3.614,-6.266c0.596,-1.024 1.729,-1.728 2.929,-1.743c0.02,0 0.06,-0.001 0.06,-0.001l6.789,0.002l0.041,0Zm34.064,-29.887l-28.49,49.326l30.971,-0l0,-45.859c0,-1.608 -1.039,-2.975 -2.481,-3.467Zm-42.705,-0.194l39.216,-0l-21.209,36.719l-19.607,-33.948l1.6,-2.771Zm8.803,27.02l-24.41,-0l12.205,-21.131l12.205,21.131Z" style="fill:#fff;stroke:#fff;stroke-width:1px;"/></g></svg>