<?xml version="1.0" encoding="UTF-8" standalone="no"?><!DOCTYPE svg PUBLIC "-//W3C//DTD SVG 1.1//EN" "http://www.w3.org/Graphics/SVG/1.1/DTD/svg11.dtd"><svg width="100%" height="100%" viewBox="0 0 100 100" version="1.1" xmlns="http://www.w3.org/2000/svg" xmlns:xlink="http://www.w3.org/1999/xlink" xml:space="preserve" xmlns:serif="http://www.serif.com/" style="fill-rule:evenodd;clip-rule:evenodd;stroke-linejoin:round;stroke-miterlimit:2;"><rect id="publisher" x="0" y="0" width="100" height="100" style="fill:none;"/><clipPath id="_clip1"><rect x="0" y="0" width="100" height="100"/></clipPath><g clip-path="url(#_clip1)"><path d="M99.999,9.766l0,80.468c0,5.39 -4.375,9.766 -9.765,9.766l-80.468,0c-5.39,0 -9.766,-4.376 -9.766,-9.766l0,-80.468c0,-5.39 4.376,-9.765 9.766,-9.765l80.468,-0c5.39,-0 9.765,4.375 9.765,9.765Zm-5,0c0,-2.63 -2.135,-4.765 -4.765,-4.765l-80.468,-0c-2.631,-0 -4.766,2.135 -4.766,4.765l0,80.468c0,2.631 2.135,4.766 4.766,4.766l80.468,0c2.63,0 4.765,-2.135 4.765,-4.766l0,-80.468Z" style="fill:#fff;"/><path d="M45.805,90l-23.597,-40.855l-12.205,21.131l-0,16.063c-0,2.021 1.64,3.661 3.661,3.661l32.141,0Zm17.207,0l-13.605,0c-0,0 -17.625,-30.525 -23.53,-40.737c-1.156,-2 -1.156,-4.473 -0,-6.474c2.135,-3.695 4.935,-8.541 4.935,-8.541l32.2,55.752Zm17.208,0l-13.606,0l-33.802,-59.215l6.603,-11.432l40.805,70.647Zm9.783,-12.853l-0,9.192c-0,2.021 -1.64,3.661 -3.661,3.661l-2.52,0l-42.606,-73.764l3.602,-6.236l6.402,0l38.783,67.147Zm-3.661,-67.147l-31.521,0l35.182,60.912l-0,-57.25c-0,-2.021 -1.64,-3.662 -3.661,-3.662Z" style="fill:#fff;"/></g></svg>