<?xml version="1.0" encoding="UTF-8" standalone="no"?><!DOCTYPE svg PUBLIC "-//W3C//DTD SVG 1.1//EN" "http://www.w3.org/Graphics/SVG/1.1/DTD/svg11.dtd"><svg width="100%" height="100%" viewBox="0 0 100 100" version="1.1" xmlns="http://www.w3.org/2000/svg" xmlns:xlink="http://www.w3.org/1999/xlink" xml:space="preserve" xmlns:serif="http://www.serif.com/" style="fill-rule:evenodd;clip-rule:evenodd;stroke-linejoin:round;stroke-miterlimit:2;"><rect id="vscodium" x="0" y="0" width="100" height="100" style="fill:none;"/><clipPath id="_clip1"><rect x="0" y="0" width="100" height="100"/></clipPath><g clip-path="url(#_clip1)"><path id="path6008" d="M48.263,2.479c-2.854,1.831 -3.677,5.624 -1.838,8.468c10.109,15.655 12.495,27.463 11.46,37.811c-4.184,19.816 -13.279,23.836 -21.227,23.836c-7.76,0 -5.682,-12.771 0.151,-16.509c3.482,-2.174 7.942,-3.587 11.365,-3.587c3.392,0 6.142,-2.741 6.142,-6.123c-0,-3.383 -2.75,-6.124 -6.142,-6.124c-3.998,0 -7.92,0.84 -11.581,2.27c0.748,-3.529 1.024,-7.343 0.057,-11.397c-1.468,-6.156 -5.694,-12.036 -13.032,-17.736c-1.285,-1 -2.915,-1.449 -4.532,-1.249c-1.617,0.2 -3.088,1.032 -4.089,2.314c-2.082,2.67 -1.6,6.518 1.078,8.595c5.978,4.643 7.952,8.08 8.627,10.909c0.675,2.829 0.132,5.864 -1.224,10.034c-1.733,5.62 -3.745,10.637 -4.627,15.448c-0.434,2.368 -0.471,4.945 -0.583,7.004c-4.305,-4.196 -5.99,-9.736 -5.99,-17.831c-0.001,-3.382 -2.751,-6.124 -6.142,-6.123c-3.389,0.003 -6.135,2.743 -6.136,6.123c-0,11.056 3.233,21.576 11.898,28.594c7.844,7.473 27.791,4.711 27.791,16.708c-0,3.386 4.956,5.034 8.347,5.034c3.478,0 7.855,-2.325 7.855,-5.034c-0,-13.612 14.345,-21.885 37.96,-21.849c3.392,0.005 6.144,-2.734 6.149,-6.116c0.006,-3.383 -2.738,-6.13 -6.13,-6.136c-1.615,-0.002 -3.189,0.053 -4.741,0.145c2.64,-6.209 3.811,-13.045 3.569,-20.429c-0.112,-3.381 -2.95,-6.031 -6.339,-5.921c-3.393,0.11 -6.051,2.943 -5.94,6.326c0.32,9.668 -0.042,18.301 -7.245,22.852c-2.048,1.293 -4.429,2.415 -6.687,2.415c1.753,-4.768 3.077,-9.801 3.619,-15.226c0.346,-3.462 0.383,-7.575 -0.012,-10.77c-0.613,-4.95 -1.353,-10.564 0.526,-14.793c1.688,-3.642 5.47,-5.167 11.023,-5.167c3.389,-0.003 6.135,-2.744 6.136,-6.123c0.002,-3.383 -2.745,-6.127 -6.136,-6.13c-8.252,0 -14.507,4.343 -18.053,9.59c-1.854,-3.96 -4.112,-8.041 -6.84,-12.265c-0.881,-1.365 -2.269,-2.324 -3.86,-2.669c-0.788,-0.171 -1.602,-0.186 -2.396,-0.044c-0.794,0.143 -1.552,0.44 -2.231,0.875Z" style="fill:#fff;fill-rule:nonzero;"/></g></svg>